<svg xmlns="http://www.w3.org/2000/svg" width="960" height="500"><g transform="translate(30, 20)"><g width="960" height="500"><g transform="translate(30,20)"></g></g><path fill="none" class="line" stroke-width="1.5" style="stroke: steelblue;" d="M910,375.0248L905.7870,375.4814C901.5741,375.9379,893.1481,376.8511,876.2963,376.9755C859.4444,377.0998,834.1667,376.4353,817.3148,373.6055C800.4630,370.7757,792.0370,365.7806,783.6111,362.2599C775.1852,358.7391,766.7593,356.6927,758.3333,352.2280C749.9074,347.7632,741.4815,340.8802,733.0556,333.4316C724.6296,325.9831,716.2037,317.9690,699.3519,306.4496C682.5000,294.9301,657.2222,279.9054,640.3704,260.2399C623.5185,240.5743,615.0926,216.2680,606.6667,193.3436C598.2407,170.4192,589.8148,148.8767,581.3889,127.0635C572.9630,105.2503,564.5370,83.1665,556.1111,68.1164C547.6852,53.0663,539.2593,45.0501,522.4074,38.2803C505.5556,31.5106,480.2778,25.9875,463.4259,21.2961C446.5741,16.6047,438.1481,12.7451,429.7222,10.4379C421.2963,8.1307,412.8704,7.3759,404.4444,6.7521C396.0185,6.1283,387.5926,5.6354,379.1667,4.5319C370.7407,3.4283,362.3148,1.7142,341.2500,1.1376C320.1852,0.5611,286.4815,1.1222,265.4167,2.4337C244.3519,3.7452,235.9259,5.8070,227.5000,6.2867C219.0741,6.7664,210.6481,5.6640,202.2222,6.2889C193.7963,6.9139,185.3704,9.2661,168.5185,12.5415C151.6667,15.8169,126.3889,20.0154,109.5370,20.9803C92.6852,21.9452,84.2593,19.6765,75.8333,17.6884C67.4074,15.7003,58.9815,13.9927,50.5556,13.4844C42.1296,12.9761,33.7037,13.6671,25.2778,14.8377C16.8519,16.0084,8.4259,17.6587,4.2130,18.4839L0,19.3091"></path><path fill="none" class="line" stroke-width="1.5" style="stroke: red;" d="M910,397.4761L905.7870,396.2174C901.5741,394.9587,893.1481,392.4414,876.2963,388.7259C859.4444,385.0105,834.1667,380.0968,817.3148,376.4683C800.4630,372.8397,792.0370,370.4962,783.6111,368.1483C775.1852,365.8004,766.7593,363.4481,758.3333,361.1717C749.9074,358.8954,741.4815,356.6949,733.0556,355.3625C724.6296,354.0301,716.2037,353.5658,699.3519,351.0232C682.5000,348.4806,657.2222,343.8596,640.3704,340.2046C623.5185,336.5497,615.0926,333.8607,606.6667,329.6677C598.2407,325.4747,589.8148,319.7778,581.3889,314.7409C572.9630,309.7040,564.5370,305.3273,556.1111,299.8504C547.6852,294.3734,539.2593,287.7962,522.4074,283.0531C505.5556,278.3100,480.2778,275.4010,463.4259,276.3549C446.5741,277.3088,438.1481,282.1256,429.7222,283.3117C421.2963,284.4977,412.8704,282.0530,404.4444,270.0726C396.0185,258.0922,387.5926,236.5761,379.1667,221.4171C370.7407,206.2581,362.3148,197.4563,341.2500,186.4782C320.1852,175.5001,286.4815,162.3457,265.4167,153.5317C244.3519,144.7178,235.9259,140.2443,227.5000,134.7310C219.0741,129.2177,210.6481,122.6648,202.2222,113.8871C193.7963,105.1095,185.3704,94.1072,168.5185,85.9776C151.6667,77.8479,126.3889,72.5910,109.5370,65.1216C92.6852,57.6521,84.2593,47.9701,75.8333,41.8209C67.4074,35.6717,58.9815,33.0553,50.5556,35.0237C42.1296,36.9920,33.7037,43.5449,25.2778,44.6452C16.8519,45.7454,8.4259,41.3929,4.2130,39.2166L0,37.0404"></path><path fill="none" class="line" stroke-width="1.5" style="stroke: green;" d="M910,413.3986L905.7870,413.3986C901.5741,413.3986,893.1481,413.3986,876.2963,413.3986C859.4444,413.3986,834.1667,413.3986,817.3148,413.3986C800.4630,413.3986,792.0370,413.3986,783.6111,413.3986C775.1852,413.3986,766.7593,413.3986,758.3333,413.3986C749.9074,413.3986,741.4815,413.3986,733.0556,413.3986C724.6296,413.3986,716.2037,413.3986,699.3519,413.3986C682.5000,413.3986,657.2222,413.3986,640.3704,413.3986C623.5185,413.3986,615.0926,413.3986,606.6667,413.3986C598.2407,413.3986,589.8148,413.3986,581.3889,413.3986C572.9630,413.3986,564.5370,413.3986,556.1111,413.3986C547.6852,413.3986,539.2593,413.3986,522.4074,413.3986C505.5556,413.3986,480.2778,413.3986,463.4259,413.3986C446.5741,413.3986,438.1481,413.3986,429.7222,413.3986C421.2963,413.3986,412.8704,413.3986,404.4444,413.3986C396.0185,413.3986,387.5926,413.3986,379.1667,413.3986C370.7407,413.3986,362.3148,413.3986,341.2500,413.3986C320.1852,413.3986,286.4815,413.3986,265.4167,413.3986C244.3519,413.3986,235.9259,413.3986,227.5000,413.3986C219.0741,413.3986,210.6481,413.3986,202.2222,413.3986C193.7963,413.3986,185.3704,413.3986,168.5185,413.3986C151.6667,413.3986,126.3889,413.3986,109.5370,413.3986C92.6852,413.3986,84.2593,413.3986,75.8333,413.3986C67.4074,413.3986,58.9815,413.3986,50.5556,413.3986C42.1296,413.3986,33.7037,413.3986,25.2778,413.3986C16.8519,413.3986,8.4259,413.3986,4.2130,413.3986L0,413.3986"></path><g transform="translate(0,420)" fill="none" font-size="10" font-family="sans-serif" text-anchor="middle"><path class="domain" stroke="#000" d="M0.5000,6V0.5000H910.5000V6"></path><g class="tick" opacity="1" transform="translate(25.277777777777775,0)"><line stroke="#000" y2="6" x1="0.5" x2="0.5"></line><text fill="#000" y="9" x="0.5" dy="0.71em">Tue 27</text></g><g class="tick" opacity="1" transform="translate(75.83333333333333,0)"><line stroke="#000" y2="6" x1="0.5" x2="0.5"></line><text fill="#000" y="9" x="0.5" dy="0.71em">Thu 29</text></g><g class="tick" opacity="1" transform="translate(126.3888888888889,0)"><line stroke="#000" y2="6" x1="0.5" x2="0.5"></line><text fill="#000" y="9" x="0.5" dy="0.71em">Sat 31</text></g><g class="tick" opacity="1" transform="translate(151.66666666666666,0)"><line stroke="#000" y2="6" x1="0.5" x2="0.5"></line><text fill="#000" y="9" x="0.5" dy="0.71em">April</text></g><g class="tick" opacity="1" transform="translate(202.2222222222222,0)"><line stroke="#000" y2="6" x1="0.5" x2="0.5"></line><text fill="#000" y="9" x="0.5" dy="0.71em">Tue 03</text></g><g class="tick" opacity="1" transform="translate(252.7777777777778,0)"><line stroke="#000" y2="6" x1="0.5" x2="0.5"></line><text fill="#000" y="9" x="0.5" dy="0.71em">Thu 05</text></g><g class="tick" opacity="1" transform="translate(303.3333333333333,0)"><line stroke="#000" y2="6" x1="0.5" x2="0.5"></line><text fill="#000" y="9" x="0.5" dy="0.71em">Sat 07</text></g><g class="tick" opacity="1" transform="translate(353.8888888888889,0)"><line stroke="#000" y2="6" x1="0.5" x2="0.5"></line><text fill="#000" y="9" x="0.5" dy="0.71em">Mon 09</text></g><g class="tick" opacity="1" transform="translate(404.4444444444444,0)"><line stroke="#000" y2="6" x1="0.5" x2="0.5"></line><text fill="#000" y="9" x="0.5" dy="0.71em">Wed 11</text></g><g class="tick" opacity="1" transform="translate(455,0)"><line stroke="#000" y2="6" x1="0.5" x2="0.5"></line><text fill="#000" y="9" x="0.5" dy="0.71em">Fri 13</text></g><g class="tick" opacity="1" transform="translate(505.5555555555556,0)"><line stroke="#000" y2="6" x1="0.5" x2="0.5"></line><text fill="#000" y="9" x="0.5" dy="0.71em">Apr 15</text></g><g class="tick" opacity="1" transform="translate(556.1111111111112,0)"><line stroke="#000" y2="6" x1="0.5" x2="0.5"></line><text fill="#000" y="9" x="0.5" dy="0.71em">Tue 17</text></g><g class="tick" opacity="1" transform="translate(606.6666666666666,0)"><line stroke="#000" y2="6" x1="0.5" x2="0.5"></line><text fill="#000" y="9" x="0.5" dy="0.71em">Thu 19</text></g><g class="tick" opacity="1" transform="translate(657.2222222222222,0)"><line stroke="#000" y2="6" x1="0.5" x2="0.5"></line><text fill="#000" y="9" x="0.5" dy="0.71em">Sat 21</text></g><g class="tick" opacity="1" transform="translate(707.7777777777778,0)"><line stroke="#000" y2="6" x1="0.5" x2="0.5"></line><text fill="#000" y="9" x="0.5" dy="0.71em">Mon 23</text></g><g class="tick" opacity="1" transform="translate(758.3333333333334,0)"><line stroke="#000" y2="6" x1="0.5" x2="0.5"></line><text fill="#000" y="9" x="0.5" dy="0.71em">Wed 25</text></g><g class="tick" opacity="1" transform="translate(808.8888888888888,0)"><line stroke="#000" y2="6" x1="0.5" x2="0.5"></line><text fill="#000" y="9" x="0.5" dy="0.71em">Fri 27</text></g><g class="tick" opacity="1" transform="translate(859.4444444444445,0)"><line stroke="#000" y2="6" x1="0.5" x2="0.5"></line><text fill="#000" y="9" x="0.5" dy="0.71em">Apr 29</text></g><g class="tick" opacity="1" transform="translate(910,0)"><line stroke="#000" y2="6" x1="0.5" x2="0.5"></line><text fill="#000" y="9" x="0.5" dy="0.71em">May</text></g></g><g fill="none" font-size="10" font-family="sans-serif" text-anchor="end"><path class="domain" stroke="#000" d="M-6,420.5000H0.5000V0.5000H-6"></path><g class="tick" opacity="1" transform="translate(0,420)"><line stroke="#000" x2="-6" y1="0.5" y2="0.5"></line><text fill="#000" x="-9" y="0.5" dy="0.32em">0</text></g><g class="tick" opacity="1" transform="translate(0,386.9930685443943)"><line stroke="#000" x2="-6" y1="0.5" y2="0.5"></line><text fill="#000" x="-9" y="0.5" dy="0.32em">50</text></g><g class="tick" opacity="1" transform="translate(0,353.98613708878867)"><line stroke="#000" x2="-6" y1="0.5" y2="0.5"></line><text fill="#000" x="-9" y="0.5" dy="0.32em">100</text></g><g class="tick" opacity="1" transform="translate(0,320.97920563318297)"><line stroke="#000" x2="-6" y1="0.5" y2="0.5"></line><text fill="#000" x="-9" y="0.5" dy="0.32em">150</text></g><g class="tick" opacity="1" transform="translate(0,287.97227417757733)"><line stroke="#000" x2="-6" y1="0.5" y2="0.5"></line><text fill="#000" x="-9" y="0.5" dy="0.32em">200</text></g><g class="tick" opacity="1" transform="translate(0,254.9653427219716)"><line stroke="#000" x2="-6" y1="0.5" y2="0.5"></line><text fill="#000" x="-9" y="0.5" dy="0.32em">250</text></g><g class="tick" opacity="1" transform="translate(0,221.95841126636594)"><line stroke="#000" x2="-6" y1="0.5" y2="0.5"></line><text fill="#000" x="-9" y="0.5" dy="0.32em">300</text></g><g class="tick" opacity="1" transform="translate(0,188.95147981076028)"><line stroke="#000" x2="-6" y1="0.5" y2="0.5"></line><text fill="#000" x="-9" y="0.5" dy="0.32em">350</text></g><g class="tick" opacity="1" transform="translate(0,155.9445483551546)"><line stroke="#000" x2="-6" y1="0.5" y2="0.5"></line><text fill="#000" x="-9" y="0.5" dy="0.32em">400</text></g><g class="tick" opacity="1" transform="translate(0,122.93761689954891)"><line stroke="#000" x2="-6" y1="0.5" y2="0.5"></line><text fill="#000" x="-9" y="0.5" dy="0.32em">450</text></g><g class="tick" opacity="1" transform="translate(0,89.93068544394322)"><line stroke="#000" x2="-6" y1="0.5" y2="0.5"></line><text fill="#000" x="-9" y="0.5" dy="0.32em">500</text></g><g class="tick" opacity="1" transform="translate(0,56.92375398833752)"><line stroke="#000" x2="-6" y1="0.5" y2="0.5"></line><text fill="#000" x="-9" y="0.5" dy="0.32em">550</text></g><g class="tick" opacity="1" transform="translate(0,23.916822532731885)"><line stroke="#000" x2="-6" y1="0.5" y2="0.5"></line><text fill="#000" x="-9" y="0.5" dy="0.32em">600</text></g></g></g></svg>